<?xml version="1.0" standalone="no"?>
<!DOCTYPE svg PUBLIC "-//W3C//DTD SVG 20010904//EN"
 "http://www.w3.org/TR/2001/REC-SVG-20010904/DTD/svg10.dtd">
<svg version="1.0" xmlns="http://www.w3.org/2000/svg"
 width="640.000000pt" height="640.000000pt" viewBox="0 0 640.000000 640.000000"
 preserveAspectRatio="xMidYMid meet">
<metadata>
Created by potrace 1.14, written by Peter Selinger 2001-2017
</metadata>
<g transform="translate(0.000000,640.000000) scale(0.100000,-0.100000)"
fill="#000000" stroke="none">
<path d="M3250 4440 c0 -26 52 -163 76 -201 63 -101 192 -201 326 -254 50 -20
69 -33 77 -53 6 -16 10 -105 9 -222 l-2 -194 -39 -36 c-22 -19 -53 -48 -70
-65 -43 -43 -124 -190 -138 -250 -11 -49 -10 -55 24 -133 39 -89 63 -182 54
-205 -3 -8 -26 -25 -52 -37 -25 -12 -63 -42 -83 -67 -48 -58 -86 -80 -148 -88
-64 -9 -79 -1 -170 86 -40 38 -77 69 -83 69 -6 0 -17 -12 -23 -27 -7 -16 -20
-38 -30 -49 -15 -17 -21 -48 -28 -145 -16 -199 -26 -217 -217 -387 -66 -58
-85 -81 -94 -115 -6 -23 -24 -67 -40 -99 l-29 -58 170 0 c93 0 170 2 170 4 0
9 41 202 46 220 6 17 9 15 25 -15 49 -97 76 -73 124 109 15 56 32 102 36 102
5 0 9 -20 9 -44 0 -42 19 -78 21 -39 1 33 38 -61 45 -115 6 -48 11 -57 48 -84
22 -16 60 -54 84 -84 l42 -54 1135 0 1134 0 -35 83 c-20 45 -39 91 -44 102 -6
15 -9 5 -15 -37 -4 -32 -10 -58 -14 -58 -4 0 -14 12 -23 28 -9 15 -26 36 -37
46 -21 19 -22 19 -44 -2 -27 -25 -59 -28 -76 -8 -7 8 -11 35 -10 60 3 57 -3
64 -38 40 -15 -10 -40 -25 -55 -34 -15 -8 -42 -28 -62 -43 -30 -25 -39 -27
-68 -19 -18 5 -50 7 -71 4 -37 -4 -37 -5 -31 -41 l7 -36 -37 33 c-44 38 -56
39 -121 7 -79 -39 -96 -35 -178 43 -40 37 -96 88 -126 112 -54 45 -78 83 -101
155 -7 22 -20 49 -30 60 -9 11 -27 48 -39 82 -12 35 -37 90 -56 123 -19 33
-32 60 -29 60 3 0 38 -28 78 -62 40 -35 85 -73 99 -85 15 -13 27 -29 27 -35 0
-7 4 -19 9 -27 8 -12 12 -12 25 -2 14 12 16 10 16 -15 1 -27 1 -28 15 -10 8
10 16 24 18 30 2 6 18 -6 36 -26 38 -44 96 -82 111 -73 5 3 10 17 10 31 0 24
0 24 46 -11 69 -53 118 -45 116 19 l-1 35 62 -43 c71 -49 159 -96 182 -96 8 0
15 8 15 17 0 14 3 14 23 -4 12 -11 36 -29 52 -39 l30 -19 -28 34 c-15 18 -26
36 -23 38 2 2 23 -8 47 -22 37 -24 43 -25 51 -11 5 9 18 16 28 16 11 0 34 13
52 30 l33 29 -72 143 c-113 222 -139 250 -277 300 -92 32 -135 80 -211 229
-45 88 -79 141 -106 166 -23 21 -81 88 -129 148 -48 61 -110 131 -138 158
l-51 47 -85 0 c-84 0 -84 0 -143 44 -32 25 -77 65 -100 89 -25 27 -54 48 -73
52 -34 7 -35 9 -321 314 -79 85 -169 174 -199 198 -42 33 -204 139 -292 190
-5 2 -8 -1 -8 -7z m890 -977 c30 -8 81 -28 112 -45 50 -27 61 -38 84 -87 26
-56 60 -101 76 -101 5 0 14 11 20 25 19 41 51 32 118 -33 74 -72 79 -100 24
-153 -93 -88 -78 -148 77 -314 35 -37 89 -85 121 -106 31 -21 60 -44 63 -50
35 -56 -130 53 -225 150 -78 78 -83 88 -150 273 -22 59 -35 75 -109 130 -29
22 -57 56 -81 100 -36 68 -91 118 -208 192 -23 15 -40 31 -37 36 7 11 25 8
115 -17z m-404 -478 c8 -13 29 -27 45 -30 16 -4 61 -32 100 -62 40 -31 95 -66
123 -77 28 -12 72 -34 99 -50 33 -19 57 -27 77 -24 40 6 39 -9 -5 -89 -33 -60
-35 -69 -35 -156 0 -92 0 -93 -46 -167 -25 -41 -58 -86 -74 -100 -16 -15 -53
-64 -81 -110 -28 -47 -49 -78 -46 -70 3 8 29 71 57 140 28 69 58 148 66 177
l15 52 -30 42 c-19 25 -31 54 -31 73 0 25 -14 44 -80 107 -70 68 -85 90 -135
193 -58 119 -91 240 -79 286 5 21 9 15 25 -43 11 -37 26 -79 35 -92z"/>
<path d="M2154 3758 c-27 -23 -110 -101 -184 -174 -82 -80 -158 -144 -193
-164 -46 -26 -72 -51 -122 -119 l-63 -85 37 -13 c45 -15 71 -46 71 -87 1 -29
1 -30 15 -12 10 13 15 44 15 91 0 60 3 75 21 91 21 19 21 18 40 -5 30 -37 27
-147 -7 -213 -14 -28 -30 -80 -35 -115 -9 -66 -37 -118 -111 -208 -32 -40 -32
-40 19 8 59 53 89 60 99 21 6 -25 1 -88 -12 -141 -7 -25 -3 -24 69 26 97 67
129 99 125 125 -2 16 -11 21 -33 22 -49 1 -54 3 -65 25 -9 16 -7 29 9 63 14
29 21 62 21 105 l0 62 95 100 c52 54 95 103 95 108 0 5 -16 3 -37 -4 -43 -15
-87 -6 -91 19 -5 23 79 192 125 254 19 26 55 67 78 92 23 25 47 54 53 65 11
22 26 105 19 105 -2 0 -26 -19 -53 -42z"/>
<path d="M2471 3393 c-5 -10 -17 -47 -26 -83 -10 -36 -25 -78 -33 -94 -12 -25
-12 -35 3 -85 9 -31 26 -78 37 -105 17 -42 18 -55 8 -94 -13 -52 -57 -142 -69
-142 -10 0 -21 85 -20 158 1 34 -9 80 -27 132 -27 75 -28 81 -13 106 19 31 11
81 -21 144 -28 54 -37 56 -59 11 -12 -22 -25 -42 -30 -45 -16 -11 -128 -247
-161 -341 -28 -79 -31 -99 -27 -169 4 -89 -5 -130 -39 -173 -27 -35 -38 -28
-22 15 13 33 5 61 -19 69 -7 3 -36 -18 -66 -45 -56 -51 -65 -56 -130 -67 -64
-11 -137 -90 -137 -149 0 -14 -14 -41 -31 -61 -45 -50 -23 -43 32 11 69 68 71
34 3 -63 -38 -55 -62 -103 -80 -163 -14 -47 -29 -88 -33 -93 -4 -4 -23 20 -42
53 l-34 61 -87 -3 c-47 -2 -89 -6 -93 -9 -3 -4 5 -31 19 -60 29 -60 34 -86 9
-49 -27 42 -67 81 -96 96 -25 13 -32 13 -73 -6 -26 -11 -57 -20 -69 -20 -37 0
-106 -93 -145 -196 l-10 -24 419 0 419 0 22 34 c11 19 34 40 49 47 22 10 30
22 35 49 3 20 18 49 32 65 24 26 26 34 22 97 -2 37 -3 68 -1 68 8 0 29 -54 44
-114 15 -60 16 -73 4 -96 -18 -35 -10 -45 58 -70 36 -14 66 -33 79 -51 21 -28
25 -29 98 -29 l76 0 -4 38 c-3 26 3 52 17 78 16 29 19 48 14 74 -5 31 -4 33 9
22 9 -7 36 -47 61 -90 44 -76 90 -131 74 -88 -18 48 -29 108 -23 131 5 19 17
28 60 40 73 21 86 38 58 73 -100 129 -101 135 -14 219 70 68 92 109 92 173 0
49 20 96 50 118 25 19 30 30 30 64 0 35 -6 47 -35 74 -21 19 -35 41 -35 56 0
23 9 36 123 157 33 35 65 79 73 97 17 41 8 131 -15 144 -18 9 -109 -7 -174
-31 -33 -12 -42 -11 -65 2 -22 12 -27 22 -25 50 2 39 -14 99 -27 99 -5 0 -13
-8 -19 -17z"/>
<path d="M1474 3053 c-30 -42 -43 -72 -48 -110 -3 -28 -13 -67 -20 -85 -8 -18
-17 -55 -21 -83 -4 -27 -14 -62 -21 -77 -8 -15 -17 -55 -21 -89 -3 -33 -13
-67 -21 -75 -11 -12 -12 -23 -5 -52 6 -24 6 -45 0 -59 -7 -17 -5 -29 7 -48 23
-34 37 -25 115 74 53 68 69 81 92 81 32 0 40 23 13 38 -14 8 -14 13 2 50 13
34 14 45 4 57 -10 12 -8 25 9 64 26 61 26 78 2 86 -28 8 -34 35 -33 142 0 52
-3 105 -7 119 -6 24 -8 22 -47 -33z"/>
<path d="M1053 2648 c-51 -63 -312 -687 -301 -719 2 -5 24 9 49 31 33 28 53
57 70 97 12 32 49 102 82 156 36 60 57 106 54 117 -3 13 2 20 21 25 14 3 53
31 85 62 50 45 65 54 89 51 15 -3 28 -1 28 2 0 4 -21 27 -47 52 -57 54 -106
108 -113 126 -5 12 -8 12 -17 0z"/>
</g>
</svg>
